<mxfile host="app.diagrams.net" modified="2021-04-26T03:05:54.866Z" agent="5.0 (Windows NT 10.0; Win64; x64) AppleWebKit/537.36 (KHTML, like Gecko) Chrome/89.0.4389.114 Safari/537.36" etag="-UQnFD_pEFszatrF5l0a" version="14.4.3" type="github">
  <diagram id="0i_a363HOQ5otxLn6usN" name="彩视攻坚">
    <mxGraphModel dx="2875" dy="1108" grid="0" gridSize="10" guides="1" tooltips="1" connect="1" arrows="1" fold="1" page="1" pageScale="1" pageWidth="827" pageHeight="1169" math="0" shadow="0">
      <root>
        <mxCell id="0" />
        <mxCell id="1" parent="0" />
        <mxCell id="P-CCTiPUnd-aN9DFWdZh-1" value="" style="rounded=1;whiteSpace=wrap;html=1;" vertex="1" parent="1">
          <mxGeometry x="96" y="204" width="120" height="60" as="geometry" />
        </mxCell>
        <mxCell id="P-CCTiPUnd-aN9DFWdZh-2" value="" style="rounded=1;whiteSpace=wrap;html=1;" vertex="1" parent="1">
          <mxGeometry x="96" y="375" width="120" height="60" as="geometry" />
        </mxCell>
        <mxCell id="P-CCTiPUnd-aN9DFWdZh-3" value="" style="endArrow=none;dashed=1;html=1;" edge="1" parent="1">
          <mxGeometry width="50" height="50" relative="1" as="geometry">
            <mxPoint x="231" y="551" as="sourcePoint" />
            <mxPoint x="231" y="105" as="targetPoint" />
          </mxGeometry>
        </mxCell>
        <mxCell id="P-CCTiPUnd-aN9DFWdZh-4" value="&lt;span style=&quot;color: rgb(0, 0, 0); font-family: helvetica; font-size: 30px; font-style: normal; font-weight: 400; letter-spacing: normal; text-align: center; text-indent: 0px; text-transform: none; word-spacing: 0px; background-color: rgb(248, 249, 250); display: inline; float: none;&quot;&gt;彩视&lt;/span&gt;" style="text;whiteSpace=wrap;html=1;fontSize=30;" vertex="1" parent="1">
          <mxGeometry x="93" y="119" width="86" height="51" as="geometry" />
        </mxCell>
        <mxCell id="P-CCTiPUnd-aN9DFWdZh-5" value="&lt;span style=&quot;color: rgb(0 , 0 , 0) ; font-family: &amp;#34;helvetica&amp;#34; ; font-size: 30px ; font-style: normal ; font-weight: 400 ; letter-spacing: normal ; text-align: center ; text-indent: 0px ; text-transform: none ; word-spacing: 0px ; background-color: rgb(248 , 249 , 250) ; display: inline ; float: none&quot;&gt;腾讯云&lt;/span&gt;" style="text;whiteSpace=wrap;html=1;fontSize=30;" vertex="1" parent="1">
          <mxGeometry x="242" y="117" width="96" height="51" as="geometry" />
        </mxCell>
        <mxCell id="P-CCTiPUnd-aN9DFWdZh-6" value="" style="endArrow=none;dashed=1;html=1;" edge="1" parent="1">
          <mxGeometry width="50" height="50" relative="1" as="geometry">
            <mxPoint x="540" y="547" as="sourcePoint" />
            <mxPoint x="540" y="101" as="targetPoint" />
          </mxGeometry>
        </mxCell>
        <mxCell id="P-CCTiPUnd-aN9DFWdZh-7" value="&lt;span style=&quot;color: rgb(0 , 0 , 0) ; font-family: &amp;#34;helvetica&amp;#34; ; font-size: 30px ; font-style: normal ; font-weight: 400 ; letter-spacing: normal ; text-align: center ; text-indent: 0px ; text-transform: none ; word-spacing: 0px ; background-color: rgb(248 , 249 , 250) ; display: inline ; float: none&quot;&gt;七牛&lt;/span&gt;" style="text;whiteSpace=wrap;html=1;fontSize=30;" vertex="1" parent="1">
          <mxGeometry x="544" y="119" width="96" height="51" as="geometry" />
        </mxCell>
        <mxCell id="P-CCTiPUnd-aN9DFWdZh-8" value="&lt;span style=&quot;color: rgb(0 , 0 , 0) ; font-family: &amp;#34;helvetica&amp;#34; ; font-size: 30px ; font-style: normal ; font-weight: 400 ; letter-spacing: normal ; text-align: center ; text-indent: 0px ; text-transform: none ; word-spacing: 0px ; background-color: rgb(248 , 249 , 250) ; display: inline ; float: none&quot;&gt;业务团队&lt;/span&gt;" style="text;whiteSpace=wrap;html=1;fontSize=30;" vertex="1" parent="1">
          <mxGeometry x="-52" y="211" width="131" height="51" as="geometry" />
        </mxCell>
        <mxCell id="P-CCTiPUnd-aN9DFWdZh-9" value="&lt;span style=&quot;color: rgb(0 , 0 , 0) ; font-family: &amp;#34;helvetica&amp;#34; ; font-size: 30px ; font-style: normal ; font-weight: 400 ; letter-spacing: normal ; text-align: center ; text-indent: 0px ; text-transform: none ; word-spacing: 0px ; background-color: rgb(248 , 249 , 250) ; display: inline ; float: none&quot;&gt;审核团队&lt;/span&gt;" style="text;whiteSpace=wrap;html=1;fontSize=30;" vertex="1" parent="1">
          <mxGeometry x="-52" y="384" width="131" height="51" as="geometry" />
        </mxCell>
        <mxCell id="P-CCTiPUnd-aN9DFWdZh-10" value="COS" style="rounded=1;whiteSpace=wrap;html=1;fontSize=20;" vertex="1" parent="1">
          <mxGeometry x="270" y="206.5" width="120" height="60" as="geometry" />
        </mxCell>
        <mxCell id="P-CCTiPUnd-aN9DFWdZh-11" value="七牛存储" style="rounded=1;whiteSpace=wrap;html=1;fontSize=20;" vertex="1" parent="1">
          <mxGeometry x="560" y="206.5" width="120" height="60" as="geometry" />
        </mxCell>
      </root>
    </mxGraphModel>
  </diagram>
</mxfile>
